<?xml version="1.0" encoding="UTF-8" standalone="no"?>
<!DOCTYPE svg PUBLIC "-//W3C//DTD SVG 1.1//EN" "http://www.w3.org/Graphics/SVG/1.1/DTD/svg11.dtd">
<!-- Created with Vectornator (http://vectornator.io/) -->
<svg height="100%" stroke-miterlimit="10" style="fill-rule:nonzero;clip-rule:evenodd;stroke-linecap:round;stroke-linejoin:round;" version="1.1" viewBox="0 0 960 217.531" width="100%" xml:space="preserve" xmlns="http://www.w3.org/2000/svg" xmlns:vectornator="http://vectornator.io" xmlns:xlink="http://www.w3.org/1999/xlink">
<defs/>
<clipPath id="ArtboardFrame">
<rect height="217.531" width="960" x="0" y="0"/>
</clipPath>
<g clip-path="url(#ArtboardFrame)" id="Untitled" vectornator:layerName="Untitled">
<path d="M0 162L16 170.2C32 178.3 64 194.7 96 199.7C128 204.7 160 198.3 192 197.2C224 196 256 200 288 198C320 196 352 188 384 190.7C416 193.3 448 206.7 480 211.2C512 215.7 544 211.3 576 212C608 212.7 640 218.3 672 212.8C704 207.3 736 190.7 768 191.3C800 192 832 210 864 210.8C896 211.7 928 195.3 944 187.2L960 179L960 0L944 0C928 0 896 0 864 0C832 0 800 0 768 0C736 0 704 0 672 0C640 0 608 0 576 0C544 0 512 0 480 0C448 0 416 0 384 0C352 0 320 0 288 0C256 0 224 0 192 0C160 0 128 0 96 0C64 0 32 0 16 0L0 0L0 162Z" fill="#6e1869" fill-rule="nonzero" opacity="1" stroke="none"/>
<path d="M0 139L16 146C32 153 64 167 96 175.7C128 184.3 160 187.7 192 182.5C224 177.3 256 163.7 288 153C320 142.3 352 134.7 384 131.2C416 127.7 448 128.3 480 135C512 141.7 544 154.3 576 162C608 169.7 640 172.3 672 173.2C704 174 736 173 768 171.5C800 170 832 168 864 171.3C896 174.7 928 183.3 944 187.7L960 192L960 0L944 0C928 0 896 0 864 0C832 0 800 0 768 0C736 0 704 0 672 0C640 0 608 0 576 0C544 0 512 0 480 0C448 0 416 0 384 0C352 0 320 0 288 0C256 0 224 0 192 0C160 0 128 0 96 0C64 0 32 0 16 0L0 0L0 139Z" fill="#9e0861" fill-rule="nonzero" opacity="1" stroke="none"/>
<path d="M0 98L16 105.2C32 112.3 64 126.7 96 126.3C128 126 160 111 192 107.3C224 103.7 256 111.3 288 108.5C320 105.7 352 92.3 384 83.8C416 75.3 448 71.7 480 80C512 88.3 544 108.7 576 112.2C608 115.7 640 102.3 672 92.3C704 82.3 736 75.7 768 79.3C800 83 832 97 864 106.3C896 115.7 928 120.3 944 122.7L960 125L960 0L944 0C928 0 896 0 864 0C832 0 800 0 768 0C736 0 704 0 672 0C640 0 608 0 576 0C544 0 512 0 480 0C448 0 416 0 384 0C352 0 320 0 288 0C256 0 224 0 192 0C160 0 128 0 96 0C64 0 32 0 16 0L0 0L0 98Z" fill="#c5174d" fill-rule="nonzero" opacity="1" stroke="none"/>
<path d="M0 47.8522L16 48.0522C32 48.1522 64 48.5522 96 51.8522C128 55.1522 160 61.5522 192 67.6522C224 73.8522 256 79.8522 288 80.5522C320 81.1522 352 76.5522 384 75.1522C416 73.8522 448 75.8522 480 72.3522C512 68.8522 544 59.8522 576 58.0522C608 56.1522 640 61.5522 672 63.8522C704 66.1522 736 65.5522 768 67.0522C800 68.5522 832 72.1522 864 67.6522C896 63.1522 928 50.5522 944 44.1522L960 37.8522L960-0.147822L944-0.147822C928-0.147822 896-0.147822 864-0.147822C832-0.147822 800-0.147822 768-0.147822C736-0.147822 704-0.147822 672-0.147822C640-0.147822 608-0.147822 576-0.147822C544-0.147822 512-0.147822 480-0.147822C448-0.147822 416-0.147822 384-0.147822C352-0.147822 320-0.147822 288-0.147822C256-0.147822 224-0.147822 192-0.147822C160-0.147822 128-0.147822 96-0.147822C64-0.147822 32-0.147822 16-0.147822L0-0.147822L0 47.8522Z" fill="#fffaed" fill-rule="nonzero" opacity="1" stroke="none"/>
</g>
</svg>
